<?xml version="1.0" encoding="iso-8859-1"?>
<!-- Generator: Adobe Illustrator 19.0.0, SVG Export Plug-In . SVG Version: 6.00 Build 0)  -->
<svg version="1.1" id="Layer_1" xmlns="http://www.w3.org/2000/svg" xmlns:xlink="http://www.w3.org/1999/xlink" x="0px" y="0px"
	 viewBox="0 0 511.996 511.996" style="enable-background:new 0 0 511.996 511.996;" xml:space="preserve">
<path style="fill:#A5A5A4;" d="M476.573,176.435c-2.347,0.018-4.597-0.909-6.264-2.559l-35.293-35.293
	c-3.168-3.697-2.735-9.273,0.962-12.441c3.3-2.832,8.179-2.832,11.479,0l35.293,35.293c3.415,3.476,3.353,9.061-0.124,12.476
	C481.002,175.5,478.84,176.4,476.573,176.435z"/>
<rect x="78.943" y="327.201" transform="matrix(0.7071 0.7071 -0.7071 0.7071 316.0996 47.2611)" style="fill:#CBB292;" width="44.115" height="155.992"/>
<path style="fill:#B19046;" d="M30.279,437.451l44.425,44.425c6.891,6.891,6.891,18.061,0,24.952l0,0
	c-6.891,6.891-18.061,6.891-24.952,0L5.327,462.403c-6.891-6.891-6.891-18.061,0-24.952l0,0
	C12.218,430.56,23.388,430.56,30.279,437.451z"/>
<path style="fill:#E4C05C;" d="M199.172,351.663L506.748,73.204c6.785-6.873,6.785-17.92,0-24.793L463.426,5.089
	c-6.873-6.785-17.92-6.785-24.793,0L155.056,307.547L199.172,351.663z"/>
<g>
	
		<rect x="118.186" y="357.183" transform="matrix(0.7071 -0.7071 0.7071 0.7071 -230.9636 200.886)" style="fill:#7F6E5D;" width="17.646" height="44.115"/>
	
		<rect x="93.198" y="382.203" transform="matrix(0.7071 -0.7071 0.7071 0.7071 -255.9742 190.5448)" style="fill:#7F6E5D;" width="17.646" height="44.115"/>
	
		<rect x="68.29" y="407.127" transform="matrix(0.7071 -0.7071 0.7071 0.7071 -280.8936 180.2329)" style="fill:#7F6E5D;" width="17.646" height="44.115"/>
</g>
<path style="fill:#B19046;" d="M156.371,306.233l43.675,43.675c6.891,6.891,6.891,18.061,0,24.952l-1.306,1.306
	c-6.891,6.891-18.061,6.891-24.952,0l-43.675-43.675c-6.891-6.891-6.891-18.061,0-24.952l1.306-1.306
	C138.31,299.342,149.48,299.342,156.371,306.233z"/>
<path style="fill:#A5A5A4;" d="M397.164,97.026c-2.347,0.018-4.597-0.909-6.264-2.559l-61.762-61.762
	c-3.168-3.697-2.735-9.273,0.962-12.441c3.3-2.832,8.179-2.832,11.479,0l61.762,61.762c3.415,3.476,3.353,9.061-0.124,12.476
	C401.593,96.091,399.432,96.991,397.164,97.026z"/>
<ellipse transform="matrix(-0.7071 0.7071 -0.7071 -0.7071 589.0843 -192.2421)" style="fill:#3F5C6C;" cx="334.357" cy="25.882" rx="30.881" ry="17.646"/>
<g>
</g>
<g>
</g>
<g>
</g>
<g>
</g>
<g>
</g>
<g>
</g>
<g>
</g>
<g>
</g>
<g>
</g>
<g>
</g>
<g>
</g>
<g>
</g>
<g>
</g>
<g>
</g>
<g>
</g>
</svg>
